<svg xmlns="http://www.w3.org/2000/svg" viewBox="103 15 165.67863 138.98381">
  <g transform="translate(80.005653,-0.08200019)">
     <path
        style="fill:#0166ff;fill-opacity:1;stroke-width:0.26458335"
        d="m 100.1448,153.8897 c -12.108213,-1.17513 -21.555173,-3.05655 -32.808343,-6.53401 l -1.5875,-0.49056 -0.0779,-12.5569 c -0.0975,-15.70918 0.16791,-18.96252 1.92824,-23.63928 2.864,-7.60894 8.13693,-13.477352 15.34758,-17.080832 3.74969,-1.87389 7.18241,-2.83852 11.37709,-3.19709 3.7673,-0.32204 21.290263,-0.31895 25.400003,0.004 14.83224,1.16726 26.84998,12.712042 28.42933,27.310522 0.1559,1.44102 0.27796,8.32391 0.27796,15.67393 v 13.10467 l -1.78594,0.8134 c -6.67738,3.04122 -14.55016,5.04953 -24.40781,6.22635 -4.13643,0.49381 -18.34751,0.72881 -22.09271,0.36533 z m 54.10729,-29.84884 c 0,-3.15175 -0.15643,-6.17102 -0.41624,-8.03375 -1.56169,-11.19687 -8.56204,-21.220072 -18.90471,-27.068022 -1.63889,-0.92667 -6.03598,-2.77421 -6.60252,-2.77421 -0.47444,0 -0.30057,-0.28953 1.08281,-1.80318 2.29207,-2.50788 4.553,-6.25951 5.80846,-9.63816 0.84118,-2.26374 1.83428,-6.82839 1.83428,-8.431 v -1.02974 h 11.65714 c 6.89736,0 12.43405,0.11532 13.55989,0.28242 11.17469,1.65859 20.92656,9.83194 24.60198,20.61966 1.59851,4.69179 1.59987,4.70824 1.7039,20.580712 l 0.0959,14.62757 -2.06303,0.94456 c -7.65803,3.50618 -17.77751,5.74598 -29.77814,6.59095 l -2.57969,0.18164 z m -100.673963,4.3116 c -4.51757,-0.45903 -10.65803,-1.47678 -15.74271,-2.60926 -3.94286,-0.87817 -5.26749,-1.22325 -11.85231,-3.0876 l -2.98876,-0.84621 0.0953,-14.84569 c 0.10349,-16.114592 0.1021,-16.097672 1.7038,-20.798822 3.67862,-10.79713 13.41755,-18.95962 24.60198,-20.61966 1.14595,-0.17009 6.99933,-0.28242 14.71633,-0.28242 h 12.81357 l 0.18202,1.8472 c 0.61753,6.26693 3.62511,13.04442 7.70555,17.36423 0.64715,0.68511 1.17664,1.32694 1.17664,1.42628 0,0.0993 -0.50601,0.33112 -1.12448,0.51508 -0.61846,0.18395 -2.3151,0.89707 -3.77031,1.58469 -2.34782,1.1094 -3.50188,1.79023 -6.58387,3.88411 -1.45582,0.98908 -4.64283,4.08848 -6.19574,6.02543 -2.31972,2.893412 -3.17071,4.201512 -4.54502,6.986472 -2.91011,5.89714 -3.97433,10.95072 -3.97433,18.87259 v 4.99392 l -1.38906,-0.0304 c -0.76399,-0.0167 -2.93688,-0.1877 -4.82865,-0.37992 z M 104.64271,88.382048 c -10.052313,-1.03802 -18.403303,-8.2101 -21.066213,-18.0923 -0.88521,-3.28506 -0.87912,-8.97198 0.013,-12.1707 1.73477,-6.21981 5.62358,-11.430704 10.87099,-14.566818 3.95568,-2.364113 7.763553,-3.40985 12.431153,-3.413911 6.81565,-0.0059 12.6179,2.356805 17.30984,7.048746 6.7771,6.777103 8.88464,17.088583 5.33213,26.088323 -1.53865,3.89791 -3.7831,6.93341 -7.16384,9.6887 -3.03926,2.47698 -6.23626,4.06427 -9.83422,4.88261 -1.9247,0.43776 -6.09723,0.72077 -7.89287,0.53535 z M 60.016627,62.996238 c -4.47566,-0.80986 -8.99337,-3.1167 -12.3343,-6.29815 -2.93917,-2.79886 -4.90051,-5.956063 -6.34941,-10.220707 -0.92701,-2.728542 -0.94417,-2.856039 -0.96164,-7.14375 -0.0171,-4.209341 0.0126,-4.460849 0.83138,-7.025558 2.26056,-7.081054 6.9532,-12.409536 13.4338,-15.254077 3.63747,-1.5966 5.3275,-1.92974 9.78959,-1.92974 4.46209,0 6.15211,0.33314 9.78958,1.92974 8.2299,3.612363 13.81545,11.593442 14.33402,20.481622 l 0.16524,2.832195 -1.99599,1.864035 c -4.32971,4.043471 -7.51054,9.364342 -8.78564,14.69657 -0.24359,1.01865 -0.50151,2.05538 -0.57316,2.30385 -0.18188,0.63072 -2.56068,1.93521 -5.17396,2.83731 -3.71204,1.28139 -8.28482,1.62959 -12.16951,0.92666 z m 83.047713,0.014 c -1.13279,-0.19043 -2.94294,-0.66839 -4.02256,-1.06215 l -1.96294,-0.71593 -0.28113,-1.49041 C 135.2209,51.382333 131.34638,45.008264 124.91617,40.195122 l -1.95155,-1.460772 0.17776,-1.961653 c 0.89247,-9.84867 8.10496,-18.296404 17.9687,-21.046086 2.92043,-0.814119 9.11856,-0.867036 11.95039,-0.102026 8.59631,2.322267 14.82798,8.361555 17.50248,16.962166 0.68086,2.189488 0.74049,2.72216 0.74049,6.614583 0,3.89708 -0.059,4.422476 -0.74268,6.614584 -2.46475,7.90266 -7.90476,13.63217 -15.39073,16.20978 -3.95849,1.36301 -7.93266,1.68619 -12.10669,0.98454 z"
     />
  </g>
</svg>
